<?xml version="1.0" standalone="no"?>
<!DOCTYPE svg PUBLIC "-//W3C//DTD SVG 20010904//EN"
 "http://www.w3.org/TR/2001/REC-SVG-20010904/DTD/svg10.dtd">
<svg version="1.0" xmlns="http://www.w3.org/2000/svg"
 width="1103.000000pt" height="731.000000pt" viewBox="0 0 1103.000000 731.000000"
 preserveAspectRatio="xMidYMid meet">

<g transform="translate(0.000000,731.000000) scale(0.100000,-0.100000)"
fill="#000000" stroke="none">
<path d="M91 7252 c-19 -9 -44 -30 -55 -45 l-21 -28 0 -3529 0 -3529 21 -28
c11 -15 36 -36 55 -45 32 -17 311 -18 5404 -18 5093 0 5372 1 5404 18 19 9 44
30 55 45 l21 28 0 3529 0 3529 -21 28 c-11 15 -36 36 -55 45 -32 17 -311 18
-5404 18 -5093 0 -5372 -1 -5404 -18z m9084 -2637 l25 -24 0 -906 0 -906 -25
-24 -24 -25 -3660 2 c-3498 3 -3661 4 -3678 21 -17 17 -18 69 -21 916 -1 582
1 908 8 925 5 15 20 31 32 36 14 5 1505 9 3671 9 l3648 1 24 -25z"/>
<path d="M1822 4608 c-17 -17 -17 -1829 0 -1846 17 -17 7329 -17 7346 0 17 17
17 1829 0 1846 -17 17 -7329 17 -7346 0z m7148 -128 c21 -11 49 -34 62 -52
l23 -33 3 -700 c2 -508 -1 -707 -9 -727 -17 -40 -72 -85 -121 -99 -67 -18
-6861 -3 -6897 16 -37 19 -77 65 -90 104 -15 46 -16 1329 0 1384 5 21 22 52
37 68 56 63 -214 58 3530 59 3390 0 3423 0 3462 -20z"/>
<path d="M8040 3681 c0 -325 3 -471 11 -471 5 0 35 23 65 51 45 43 54 48 54
31 0 -26 25 -52 50 -52 37 0 50 27 50 103 l0 73 69 68 c38 38 74 65 80 62 5
-4 13 -23 17 -44 12 -66 55 -91 100 -58 17 13 19 29 22 138 l4 123 74 76 c41
42 74 81 74 87 0 14 -80 83 -144 126 -133 87 -290 142 -438 153 l-88 6 0 -472z
m217 415 c46 -12 48 -14 45 -44 -4 -38 14 -42 30 -7 6 14 16 25 22 25 20 0
191 -90 226 -120 28 -23 33 -31 23 -41 -7 -7 -13 -19 -13 -27 0 -12 5 -11 26
3 24 15 28 16 42 1 15 -14 14 -18 -12 -45 l-28 -29 -66 49 c-37 27 -76 55 -87
63 -18 13 -18 17 -7 36 21 34 -1 47 -25 16 l-20 -25 -74 28 c-41 16 -100 35
-132 42 -56 12 -58 13 -52 40 9 39 -13 48 -28 10 -8 -22 -18 -31 -34 -31 -20
0 -23 5 -23 41 l0 41 70 -7 c38 -4 91 -13 117 -19z m-101 -97 c133 -23 316
-103 399 -173 35 -30 38 -35 26 -50 -10 -12 -17 -14 -25 -6 -5 5 -14 10 -18
10 -4 0 -8 -67 -8 -149 0 -118 -3 -151 -15 -161 -23 -19 -36 -8 -54 45 -12 38
-22 52 -44 59 -25 9 -32 5 -86 -48 -54 -54 -60 -57 -63 -36 -1 13 -8 25 -15
27 -9 3 -13 -27 -15 -119 -2 -99 -6 -123 -17 -123 -8 0 -18 14 -23 31 -13 50
-36 51 -85 2 l-43 -42 0 77 c0 74 1 77 29 91 33 17 41 34 41 81 0 27 -7 40
-35 62 l-35 28 0 203 c0 160 3 202 13 202 7 0 40 -5 73 -11z"/>
<path d="M8132 3940 c-46 -43 -36 -117 20 -146 87 -45 173 72 103 141 -31 32
-91 34 -123 5z"/>
<path d="M8288 3729 c-44 -25 -43 -75 3 -99 53 -29 96 60 47 94 -26 19 -27 19
-50 5z"/>
<path d="M2296 4104 c-31 -31 -11 -72 43 -89 17 -5 20 -10 12 -18 -8 -8 -14
-8 -23 1 -16 16 -48 15 -48 -1 0 -23 23 -37 61 -37 67 0 81 61 21 92 -50 25
-52 31 -4 23 34 -5 42 -4 42 9 0 34 -76 49 -104 20z"/>
<path d="M2434 4108 c-4 -6 -2 -14 4 -16 15 -5 16 -98 2 -107 -25 -16 -5 -25
55 -25 l65 0 0 30 c0 31 -16 41 -26 15 -4 -8 -12 -15 -20 -15 -8 0 -14 7 -14
15 0 9 9 15 21 15 14 0 19 5 17 18 -2 9 -11 16 -21 16 -9 -1 -17 4 -17 12 0 8
7 14 15 14 8 0 15 -4 15 -10 0 -5 7 -10 15 -10 10 0 15 10 15 30 0 30 0 30
-59 30 -36 0 -63 -5 -67 -12z"/>
<path d="M2600 4099 c0 -11 5 -17 10 -14 6 4 10 -13 10 -44 0 -28 -4 -51 -10
-51 -5 0 -10 -7 -10 -15 0 -10 11 -15 35 -15 l35 0 -5 43 -5 42 16 -42 c9 -24
21 -43 28 -43 6 0 19 19 28 43 12 31 17 36 17 19 1 -13 -4 -32 -9 -43 -10 -17
-7 -19 30 -19 29 0 40 4 40 15 0 8 -4 15 -10 15 -5 0 -10 23 -10 50 0 28 5 50
10 50 6 0 10 7 10 16 0 12 -9 14 -37 12 -34 -3 -39 -7 -53 -46 l-16 -42 -12
45 c-12 44 -13 45 -52 45 -34 0 -40 -3 -40 -21z"/>
<path d="M2857 4062 c3 -36 1 -67 -6 -80 -11 -21 -10 -22 29 -22 28 0 40 4 40
14 0 8 -5 16 -11 18 -6 2 -9 17 -7 33 3 29 4 28 19 -15 9 -25 22 -45 29 -45 7
0 20 20 29 45 15 43 16 44 19 15 2 -16 -1 -31 -7 -33 -26 -9 -10 -32 22 -32
l32 0 0 80 0 80 -32 0 c-27 0 -34 -5 -44 -35 -7 -19 -16 -35 -19 -35 -3 0 -12
16 -19 35 -11 30 -17 35 -46 35 l-33 0 5 -58z"/>
<path d="M3143 4108 c-9 -13 -53 -129 -53 -142 0 -3 14 -6 31 -6 26 0 31 3 26
20 -4 16 0 20 18 20 18 0 22 -4 18 -20 -5 -17 0 -20 26 -20 31 0 40 15 23 36
-5 5 -19 35 -32 67 -22 56 -38 69 -57 45z m23 -75 c-10 -10 -19 5 -10 18 6 11
8 11 12 0 2 -7 1 -15 -2 -18z"/>
<path d="M3270 4110 c0 -6 12 -28 26 -50 20 -30 24 -46 19 -69 -6 -30 -6 -31
30 -31 36 0 36 1 30 31 -5 23 -1 39 19 69 34 52 33 62 -6 58 -27 -2 -33 -7
-33 -25 0 -13 -4 -22 -10 -20 -5 1 -9 12 -7 25 2 19 -2 22 -33 22 -19 0 -35
-5 -35 -10z"/>
<path d="M3495 4088 c-7 -19 -17 -46 -20 -61 -4 -15 -11 -30 -16 -33 -22 -13
-8 -34 22 -34 26 0 31 3 26 20 -4 16 0 20 18 20 18 0 22 -4 18 -20 -5 -17 0
-20 31 -20 24 0 36 5 36 14 0 8 -4 16 -9 18 -5 2 -20 30 -33 63 -29 72 -52 82
-73 33z m38 -38 c3 -12 0 -20 -8 -20 -8 0 -11 8 -8 20 3 11 7 20 8 20 1 0 5
-9 8 -20z"/>
<path d="M3732 4113 c-7 -2 -17 -13 -22 -24 -15 -26 2 -54 40 -67 16 -6 30
-16 30 -21 0 -14 -27 -14 -35 -1 -10 15 -45 12 -45 -5 0 -32 86 -49 110 -21
20 25 8 60 -27 76 -43 20 -42 33 2 24 28 -5 35 -3 35 10 0 27 -51 44 -88 29z"/>
<path d="M3888 4055 c-12 -36 -26 -65 -30 -65 -5 0 -8 -7 -8 -15 0 -10 11 -15
35 -15 35 0 50 22 23 33 -7 3 2 6 21 6 27 1 31 -2 22 -12 -14 -18 -4 -27 31
-27 27 0 39 22 19 34 -4 3 -19 33 -31 66 -31 82 -51 81 -82 -5z m52 -17 c0 -5
-4 -8 -10 -8 -5 0 -10 10 -10 23 0 18 2 19 10 7 5 -8 10 -18 10 -22z"/>
<path d="M4044 4109 c-4 -7 -2 -15 4 -17 15 -5 16 -102 2 -102 -5 0 -10 -7
-10 -15 0 -10 11 -15 35 -15 l35 0 -5 48 -5 47 15 -47 c9 -28 22 -48 30 -48 8
0 21 20 30 48 l15 47 -5 -47 -5 -48 35 0 c24 0 35 5 35 15 0 8 -4 15 -10 15
-5 0 -10 23 -10 50 0 28 5 50 10 50 6 0 10 7 10 16 0 12 -9 14 -37 12 -35 -3
-39 -7 -53 -45 l-14 -43 -16 43 c-13 36 -20 42 -47 45 -17 2 -35 -2 -39 -9z"/>
<path d="M4330 4093 c-26 -70 -34 -89 -42 -97 -17 -21 -8 -36 23 -36 26 0 31
3 26 20 -4 16 0 20 18 20 18 0 22 -4 18 -20 -5 -17 0 -20 31 -20 24 0 36 5 36
14 0 8 -3 16 -8 18 -4 2 -19 30 -33 63 -28 68 -53 82 -69 38z m40 -55 c0 -5
-6 -8 -14 -8 -9 0 -12 7 -9 21 4 16 8 17 14 7 5 -7 9 -16 9 -20z"/>
<path d="M4470 4104 c0 -7 4 -15 9 -19 12 -7 10 -95 -1 -95 -4 0 -8 -7 -8 -15
0 -10 10 -15 33 -15 l32 0 0 78 0 77 -32 1 c-20 0 -33 -4 -33 -12z"/>
<path d="M4580 4103 c0 -7 5 -13 10 -13 6 0 10 -22 10 -50 0 -27 -4 -50 -10
-50 -5 0 -10 -7 -10 -15 0 -11 11 -15 40 -15 38 0 50 14 26 31 -5 4 -6 13 -4
20 3 8 12 1 23 -19 20 -34 65 -46 65 -17 0 8 -4 15 -9 15 -5 0 -16 12 -26 26
-16 25 -16 27 9 53 35 37 33 48 -10 43 -24 -3 -34 -9 -30 -17 3 -8 -2 -19 -11
-27 -14 -11 -15 -9 -9 17 6 29 5 30 -29 30 -21 0 -35 -5 -35 -12z"/>
<path d="M4760 4103 c0 -7 5 -13 10 -13 6 0 10 -22 10 -49 0 -59 18 -81 64
-81 44 0 66 26 66 78 0 22 5 44 10 47 19 12 10 23 -23 27 l-34 4 1 -61 c1 -54
-1 -60 -19 -60 -18 0 -20 7 -20 57 0 56 0 56 -32 60 -22 3 -33 0 -33 -9z"/>
<path d="M5183 4110 c-71 -29 -46 -150 31 -150 44 0 76 35 76 82 0 54 -55 89
-107 68z m65 -66 c3 -34 -18 -60 -43 -50 -21 8 -28 31 -21 62 5 20 12 25 34
22 22 -2 28 -9 30 -34z"/>
<path d="M6613 4110 c-45 -18 -58 -90 -23 -128 16 -17 31 -21 70 -21 45 2 50
4 50 24 0 13 3 30 6 39 5 13 -1 16 -30 16 -36 0 -52 -22 -23 -33 8 -3 6 -7 -6
-12 -24 -10 -47 12 -47 46 0 35 32 57 52 36 13 -14 48 -11 48 4 0 12 -42 39
-60 38 -8 0 -25 -4 -37 -9z"/>
<path d="M4960 4100 c0 -5 5 -10 10 -10 6 0 10 -22 10 -50 0 -27 -4 -50 -10
-50 -5 0 -10 -7 -10 -15 0 -11 11 -15 40 -15 29 0 40 4 40 15 0 8 -4 15 -10
15 -5 0 -10 7 -10 15 0 24 14 17 32 -15 18 -31 43 -40 51 -17 2 6 -2 20 -11
29 -12 15 -13 22 -2 48 19 45 1 60 -71 60 -33 0 -59 -4 -59 -10z m98 -32 c-7
-19 -38 -22 -38 -4 0 10 9 16 21 16 12 0 19 -5 17 -12z"/>
<path d="M5330 4100 c0 -5 5 -10 10 -10 6 0 10 -22 10 -50 0 -27 -4 -50 -10
-50 -5 0 -10 -7 -10 -15 0 -10 11 -15 35 -15 l35 0 -5 43 -5 42 16 -43 c9 -24
21 -41 26 -40 6 2 19 24 30 48 l19 45 -5 -47 -6 -48 35 0 c24 0 35 5 35 15 0
8 -4 15 -10 15 -5 0 -10 23 -10 50 0 28 5 50 10 50 6 0 10 5 10 10 0 6 -18 10
-39 10 -37 0 -40 -2 -54 -42 l-14 -43 -13 43 c-13 40 -15 42 -52 42 -21 0 -38
-4 -38 -10z"/>
<path d="M5640 4100 c0 -5 5 -10 10 -10 6 0 10 -22 10 -50 0 -27 -4 -50 -10
-50 -5 0 -10 -7 -10 -15 0 -23 102 -21 123 3 18 19 22 44 10 56 -4 3 -7 21 -7
39 l-1 32 -62 3 c-39 2 -63 -1 -63 -8z m88 -32 c-6 -18 -28 -21 -28 -4 0 9 7
16 16 16 9 0 14 -5 12 -12z m10 -60 c-7 -19 -38 -22 -38 -4 0 10 9 16 21 16
12 0 19 -5 17 -12z"/>
<path d="M5855 4073 c-9 -20 -18 -47 -21 -60 -4 -13 -10 -23 -15 -23 -5 0 -9
-7 -9 -15 0 -10 10 -15 31 -15 26 0 31 3 26 20 -4 16 0 20 18 20 18 0 22 -4
18 -20 -5 -17 0 -20 31 -20 25 0 36 4 36 15 0 8 -3 15 -8 15 -4 0 -18 27 -30
60 -29 73 -53 80 -77 23z m45 -35 c0 -5 -6 -8 -14 -8 -9 0 -12 7 -9 21 4 16 8
17 14 7 5 -7 9 -16 9 -20z"/>
<path d="M5990 4103 c1 -5 14 -24 30 -43 31 -35 38 -64 20 -75 -19 -12 1 -25
36 -25 34 0 49 23 22 33 -10 3 -7 17 11 51 13 25 28 46 32 46 5 0 9 5 9 10 0
6 -16 10 -36 10 -30 0 -34 -3 -29 -19 3 -11 1 -23 -6 -26 -14 -9 -29 13 -22
32 4 9 -5 13 -31 13 -20 0 -36 -3 -36 -7z"/>
<path d="M6210 4053 c-12 -32 -26 -63 -31 -69 -12 -15 -1 -24 33 -24 29 0 40
24 16 33 -7 3 1 6 19 6 26 1 30 -2 26 -19 -5 -17 0 -20 26 -20 36 0 37 4 12
54 -11 20 -24 50 -30 67 -17 50 -46 38 -71 -28z m50 -8 c0 -8 -4 -15 -10 -15
-5 0 -10 7 -10 15 0 8 5 15 10 15 6 0 10 -7 10 -15z"/>
<path d="M6360 4100 c0 -5 5 -10 10 -10 6 0 10 -22 10 -50 0 -27 -4 -50 -10
-50 -5 0 -10 -7 -10 -15 0 -10 11 -15 35 -15 l35 0 -6 43 -6 42 32 -42 c18
-25 40 -43 51 -43 17 0 19 8 19 59 0 33 3 66 6 75 5 13 -1 16 -30 16 -34 0
-50 -14 -25 -22 6 -2 9 -17 7 -33 l-3 -29 -28 42 c-22 34 -33 42 -57 42 -17 0
-30 -4 -30 -10z"/>
<path d="M6795 4083 c-3 -15 -15 -45 -26 -67 -25 -52 -24 -56 12 -56 26 0 31
3 26 20 -4 16 0 20 18 20 18 0 22 -4 18 -20 -5 -17 0 -20 26 -20 17 0 31 3 31
7 0 4 -12 37 -27 75 -22 54 -32 68 -49 68 -15 0 -24 -8 -29 -27z m33 -52 c-15
-5 -19 4 -11 24 6 18 7 18 13 -1 4 -10 3 -21 -2 -23z"/>
<path d="M6945 4035 l0 -75 33 0 c22 0 32 5 32 15 0 8 -4 15 -10 15 -5 0 -10
7 -10 15 0 25 18 17 35 -15 16 -30 38 -39 50 -19 4 5 -1 19 -11 30 -15 17 -16
22 -4 45 22 40 4 58 -61 62 l-54 3 0 -76z m85 29 c0 -8 -9 -14 -20 -14 -13 0
-20 7 -20 19 0 14 5 18 20 14 11 -3 20 -12 20 -19z"/>
<path d="M7146 4058 c-11 -29 -23 -57 -27 -62 -18 -20 -9 -36 22 -36 26 0 31
3 26 20 -4 16 0 20 18 20 18 0 22 -4 18 -20 -5 -17 0 -20 26 -20 17 0 31 3 31
7 0 4 -12 37 -27 75 -22 53 -33 68 -49 68 -15 0 -24 -12 -38 -52z m42 -27
c-15 -5 -19 4 -11 24 6 18 7 18 13 -1 4 -10 3 -21 -2 -23z"/>
<path d="M7305 4035 l0 -75 31 0 c21 0 31 5 31 15 0 8 -4 15 -9 15 -4 0 -8 17
-7 38 l1 37 17 -49 c9 -28 22 -51 28 -53 6 -2 19 20 29 49 l19 53 3 -35 c2
-19 -1 -36 -7 -38 -6 -2 -11 -10 -11 -18 0 -9 11 -14 35 -14 24 0 35 5 35 15
0 8 -4 15 -10 15 -5 0 -10 20 -10 44 0 25 5 48 10 51 22 14 8 26 -27 23 -33
-3 -39 -7 -47 -35 -5 -18 -12 -33 -16 -33 -4 0 -11 15 -16 33 -8 27 -15 32
-44 35 l-35 3 0 -76z"/>
<path d="M7567 4042 c-15 -37 -27 -71 -27 -75 0 -4 14 -7 30 -7 30 0 43 23 18
33 -7 3 1 6 19 6 26 1 30 -2 26 -19 -5 -17 0 -20 26 -20 36 0 37 4 12 54 -11
20 -24 50 -30 67 -18 52 -44 38 -74 -39z m53 3 c0 -8 -4 -15 -10 -15 -5 0 -10
7 -10 15 0 8 5 15 10 15 6 0 10 -7 10 -15z"/>
<path d="M3691 3780 c-43 -10 -80 -37 -109 -81 -20 -28 -23 -42 -18 -83 9 -83
45 -117 163 -157 85 -28 109 -48 94 -77 -25 -46 -141 -19 -141 33 0 16 -4 16
-92 -6 -31 -8 -38 -14 -38 -34 0 -13 12 -38 26 -55 52 -61 146 -89 242 -70 94
17 144 71 144 155 0 85 -40 126 -162 166 -36 12 -73 28 -82 37 -29 24 -22 50
15 60 37 10 87 -3 87 -23 0 -23 14 -25 79 -13 63 12 63 12 57 42 -17 84 -143
135 -265 106z"/>
<path d="M6533 3780 c-129 -27 -202 -137 -191 -291 9 -120 85 -217 183 -235
63 -11 139 -6 184 12 85 34 151 148 151 260 0 102 -57 201 -135 235 -50 22
-137 30 -192 19z m124 -120 c46 -27 57 -55 57 -140 1 -116 -31 -161 -116 -162
-81 -1 -124 65 -115 179 5 73 25 109 70 128 44 19 67 18 104 -5z"/>
<path d="M2274 3767 c-3 -8 -4 -30 -2 -49 2 -28 7 -34 31 -36 l27 -3 0 -164 0
-164 -27 -3 c-26 -3 -28 -6 -28 -48 l0 -45 125 0 125 0 3 48 c3 46 3 47 -27
47 -30 0 -31 1 -31 50 0 46 2 50 24 50 32 0 49 -18 71 -76 35 -94 77 -129 146
-122 30 3 33 6 44 55 12 51 12 51 -15 56 -20 5 -33 20 -57 66 l-30 61 24 15
c53 35 72 136 36 198 -34 60 -77 72 -265 75 -142 3 -169 1 -174 -11z m310
-113 c9 -8 16 -25 16 -38 0 -40 -23 -58 -78 -64 l-52 -5 0 62 0 61 49 0 c32 0
55 -6 65 -16z"/>
<path d="M2867 3773 c-4 -3 -7 -26 -7 -50 0 -41 1 -43 29 -43 l29 0 4 -147 c3
-133 5 -152 26 -188 30 -53 75 -83 145 -95 100 -19 197 7 245 66 40 48 52 107
52 249 l0 115 25 0 c23 0 25 3 25 50 l0 50 -120 0 -120 0 0 -50 c0 -49 1 -50
30 -50 l30 0 0 -107 c0 -123 -11 -176 -43 -198 -31 -22 -99 -19 -131 6 -26 20
-26 21 -26 160 l0 139 25 0 c23 0 25 3 25 50 l0 50 -118 0 c-65 0 -122 -3
-125 -7z"/>
<path d="M4094 3766 c-3 -8 -4 -29 -2 -48 2 -28 7 -34 31 -36 l27 -3 0 -165 0
-164 -31 0 c-30 0 -30 -1 -27 -47 l3 -48 123 -3 122 -3 0 51 c0 48 -1 50 -27
50 l-28 0 0 165 0 165 28 0 c26 0 27 2 27 50 l0 50 -120 0 c-94 0 -122 -3
-126 -14z"/>
<path d="M4480 3730 c0 -47 2 -50 25 -50 l25 0 0 -165 0 -165 -25 0 c-23 0
-25 -3 -25 -47 l0 -48 120 0 120 0 0 48 c0 44 -2 47 -25 47 -24 0 -25 3 -25
55 0 85 23 74 95 -43 l61 -97 77 -3 77 -3 0 45 c0 41 -2 45 -27 48 -22 2 -38
20 -86 95 l-59 93 62 70 c44 50 69 70 86 70 22 0 24 4 24 50 l0 51 -112 -3
-113 -3 -3 -43 c-3 -37 0 -44 17 -49 19 -5 17 -9 -22 -54 -57 -65 -77 -65 -77
0 0 44 3 50 23 53 19 3 22 10 25 51 l3 47 -120 0 -121 0 0 -50z"/>
<path d="M5110 3730 c0 -47 2 -50 25 -50 l25 0 0 -165 0 -165 -25 0 c-23 0
-25 -4 -25 -45 l0 -45 120 0 120 0 0 45 c0 41 -2 45 -25 45 -24 0 -25 3 -25
55 0 85 23 75 95 -42 l61 -98 82 -3 83 -3 -3 43 c-3 39 -6 43 -32 48 -24 4
-40 22 -89 97 l-59 93 63 70 c43 49 69 70 85 70 22 0 24 4 24 50 l0 50 -110 0
-110 0 0 -50 c0 -39 4 -50 16 -50 10 0 1 -17 -28 -50 -57 -66 -78 -66 -78 0 0
47 2 50 25 50 23 0 25 3 25 50 l0 50 -120 0 -120 0 0 -50z"/>
<path d="M5740 3731 c0 -50 1 -51 30 -51 l30 0 0 -165 0 -165 -30 0 c-29 0
-30 -2 -30 -45 l0 -45 126 0 125 0 -3 43 c-3 38 -6 42 -30 45 -26 3 -28 6 -28
53 l0 50 32 -3 c34 -3 33 -1 84 -112 28 -62 62 -86 123 -86 26 0 31 5 40 38
16 55 14 69 -12 76 -17 4 -33 24 -54 66 -29 58 -29 61 -11 71 57 31 78 152 37
211 -37 51 -76 61 -261 66 l-168 5 0 -52z m305 -71 c8 -7 15 -27 15 -46 0 -42
-30 -64 -87 -64 l-43 0 0 66 0 67 50 -5 c27 -3 56 -11 65 -18z"/>
<path d="M6990 3729 c0 -49 1 -50 28 -47 l27 3 3 -167 2 -168 -30 0 c-29 0
-30 -2 -30 -45 l0 -45 120 0 120 0 0 45 c0 43 -1 45 -30 45 l-30 0 0 135 c0
74 2 135 4 135 2 0 32 -81 66 -180 l62 -180 38 0 38 0 52 153 c80 238 78 236
79 75 l1 -138 -30 0 c-29 0 -30 -2 -30 -45 l0 -45 120 0 120 0 0 45 c0 43 -1
45 -30 45 l-30 0 2 168 3 167 28 0 c26 -1 27 1 27 47 l0 49 -122 -3 -122 -3
-51 -149 c-29 -82 -54 -145 -57 -140 -3 5 -27 73 -52 152 l-48 142 -124 0
-124 0 0 -51z"/>
</g>
</svg>
